<svg xmlns="http://www.w3.org/2000/svg" width="1200" height="240" viewBox="0 0 1200 240">
  <defs>
    <style>
      .wm { font: 800 50px/1.1 "Manrope", Arial, sans-serif; letter-spacing:.6px; }
      .tg { font: 800 18px/1.2 "Manrope", Arial, sans-serif; letter-spacing:2px; }
    </style>
  </defs>
  <g transform="translate(10,10)">
<polygon points="20,20 20,180 210,100" fill="#10B981"/>
<polygon points="210,100 20,30 20,40" fill="#FFFFFF" opacity="0.95"/>
<polygon points="210,100 20,52 20,62" fill="#FFFFFF" opacity="0.95"/>
<polygon points="210,100 20,74 20,84" fill="#FFFFFF" opacity="0.95"/>
<polygon points="210,100 20,96 20,106" fill="#FFFFFF" opacity="0.95"/>
<polygon points="210,100 20,118 20,128" fill="#FFFFFF" opacity="0.95"/>
<polygon points="210,100 20,140 20,150" fill="#FFFFFF" opacity="0.95"/>
<polygon points="210,100 20,162 20,172" fill="#FFFFFF" opacity="0.95"/>
<polygon points="210,100 20,176 20,180" fill="#FFFFFF" opacity="0.95"/>
</g>
  <text x="255" y="110" class="wm" fill="#2563EB">CLEAR METRICS LLC</text>
  <text x="255" y="145" class="tg" fill="#9CA3AF">DATA WITH CLARITY</text>
  <line x1="245" y1="160" x2="1150" y2="160" stroke="#10B981" stroke-width="8" stroke-linecap="round"/>
</svg>